<svg version="1.1" id="Слой_1" xmlns="http://www.w3.org/2000/svg" xmlns:xlink="http://www.w3.org/1999/xlink" x="0" y="0" viewBox="0 0 261 261" xml:space="preserve">
<style>.st2{fill:none}.st2,.st3{stroke:#000}</style>
<g id="Слой_x0020_1"><g id="_612943824"><radialGradient id="SVGID_1_" cx="6661.478" cy="25648.943" r="1487.54" gradientTransform="matrix(-.02413 .0333 .03314 .02428 -500.088 -716.289)" gradientUnits="userSpaceOnUse"><stop offset="0" stop-color="#ffe93d"/><stop offset="1" stop-color="#fc1f02"/></radialGradient><path fill="url(#SVGID_1_)" d="M180.7 45.5L165 53l-16.6-1.1-11.7 13-15.6 5.3-5.9 16.4-12.4 11 .9 17.3-7.3 14.9 7.4 15.8-1 16.5 13 11.7 5.3 15.7 16.4 5.8 10.9 12.5 17.4-1 14.9 7.4 15.7-7.5 16.6 1.1 11.6-13 15.7-5.3 5.8-16.5 12.5-10.9-.9-17.4 7.3-14.9-7.4-15.7 1-16.5-13-11.7-5.3-15.7-16.4-5.8L213 51.9l-17.4 1z"/><defs><path id="SVGID_2_" d="M180.7 45.5L165 53l-16.6-1.1-11.7 13-15.6 5.3-5.9 16.4-12.4 11 .9 17.3-7.3 14.9 7.4 15.8-1 16.5 13 11.7 5.3 15.7 16.4 5.8 10.9 12.5 17.4-1 14.9 7.4 15.7-7.5 16.6 1.1 11.6-13 15.7-5.3 5.8-16.5 12.5-10.9-.9-17.4 7.3-14.9-7.4-15.7 1-16.5-13-11.7-5.3-15.7-16.4-5.8L213 51.9l-17.4 1z"/></defs><clipPath id="SVGID_3_"><use xlink:href="#SVGID_2_" overflow="visible"/></clipPath><g clip-path="url(#SVGID_3_)"><path id="_x31_" d="M140.8 164.2s5.6-17.2 7.2-23.1c1.6-5.9 3.4-11.3 3.4-11.3s-13.3-.5-18.6-10.9c-5.4-10.4-1.3-23.1-1.3-23.1s-.5-1.1-1-2.7L117.6 109l12.7-16.5c-.5-1.5-.9-3.5-1.1-5.6l-8.7 3.4 8.7-3.6c-.3-4.4.9-9.1 6.2-11.7 3.7-1.7 7.1-2.3 10.1-2.3l7.5-9.8 1.4.7-7.4 9.1c5.2.4 8.7 2.5 8.7 2.5s.4-.1 1.1-.1l16.3-6.7s.5 1.4.6 1.4l-14.1 5.4c4.5.2 11.9 1.2 16.6 4.8 7.2 5.6 9 10.4 9.9 12.1.9 1.7 4 5.2 3.8 10.8-.2 5.1-1.3 7.4-1.3 10.3.7-.3 1.3-.7 1.6-.9.7-.6 1.5-1.2 1.5-1.2s-1 1.5-1.7 1.9 2.1-1.1 2.7-1.7c.5-.5.9-1 .9-1s-.7 1.7-1.8 2.2c-1.1.6 2.9-1.9 2.9-1.9s-2.1 2.1-4.4 2.8c-.6.2-1.1.3-1.6.4v.3c.3 3.6 2.5 7.7 2.8 8.8.3 1.1-2.9 1.5-3.6 1.7s-1.3 1.3-1.1 2.5c.2 1.2.4 2.6-1.1 2.6H184s1.7.7 1.3 1.9c-.3 1.3-.7.7-1.4 1.5-.6.8-.9 3.8-1.3 5-.4 1.2-2.7 1.9-6.6-.8s-5.9-4.6-5.9-4.6-5.2 6.9-5.7 13.6c-.5 6.7.7 13.7.7 13.7s.2 1 .4 3.1c1.9 3.2 4.2 7.3 6 10 2.2 3.4 10.3 16.7 13.8 27.7 2.7-7.4 4.8-15.5 4.8-15.5l.7.6 4-11.1s-1.3-3.5-.2-7.8c1-4.4 4-14.8 5.4-16.2 0 0 .3 1.3.1 3.2-.2 1.9-1.6 6.5-1.6 6.5s-.9 2.5 1.3 4.3c2.3 1.7 5.1-.3 7-1.1 1.9-.9 9.6-6 9.6-6s3.1-5.8 4.3-7.4c1.2-1.7 3.8-3.6 3.8-3.6s-.5 1-1.2 2.1-2.8 5-2.8 5 2.5-1.7 4.2-3.2c1.7-1.5 3.5-1.8 3.5-1.8s.1.1-.9.7-4.4 4-4.4 4 2.3-1.5 3-1.9c.7-.3 2.5-1 2.5-1s-5.7 5-11 9.3c-5.3 4.4-11.7 10.3-11.7 10.3s-1 2-2.6 4.9c-1.5 2.8-6 18.8-6 18.8 3.6 21.2 16.1 30.6 14 63.2l-52-5.8c-4.8-.1-9.8-.4-12.9-1.5-2.1-.7-3.4-1.8-3.2-3.4.7-7.2-4.9-25.7-6.3-44.3-1.6-18.1 4.1-37.9 4.1-37.9zm80.7-22.3c-.9.9-3.2 1.9-5.1 1.5-.9.1-1.7-.1-2.5-.7-3.1-2.1-1.6-4.6.2-4.6.9 0 1.6.3 2.1.7.2.1.4.2.6.4-.4-.7-1-2.5-.1-4.8 1.3-3.1 3.7-5.2 6.2-3.1.9.7 1 2 .9 3.4.3.2.5.5.7.7 1.4 2.3-3 6.5-3 6.5z"/></g><path class="st2" d="M180.7 45.5L165 53l-16.6-1.1-11.7 13-15.6 5.3-5.9 16.4-12.4 11 .9 17.3-7.3 14.9 7.4 15.8-1 16.5 13 11.7 5.3 15.7 16.4 5.8 10.9 12.5 17.4-1 14.9 7.4 15.7-7.5 16.6 1.1 11.6-13 15.7-5.3 5.8-16.5 12.5-10.9-.9-17.4 7.3-14.9-7.4-15.7 1-16.5-13-11.7-5.3-15.7-16.4-5.8L213 51.9l-17.4 1zM213 51.9l-64.6 155.9M180.7 45.5v168.7M148.4 51.9L213 207.8M121.1 70.2l119.2 119.3M102.8 97.6l155.8 64.5M96.4 129.8H265M102.8 162.1l155.8-64.5M121.1 189.5L240.3 70.2"/><path class="st3" d="M174.2 192.7c2-4.2 5.5-6.6 3.4-11.6s-3.3-10.7-3.5-13.2c-.2-2.5-5-1.1-5.4 2.1-.4 3.2-1.3 5.9-1.8 7.4s-1.4 7 0 9.2c1.5 2.2 7.3 6.1 7.3 6.1z"/><path class="st3" d="M176.6 137.3l-.3 1.2-8.7 38 2.5.4 8-38z"/><path d="M173.9 169.8c.4-.1 1.5-.5 1.9 1.1.5 1.7-1.2 2.7-1.2 2.7s1.2-.6 1.5-.5c.3.1 1.5 1.3 1.1 2.7-.5 1.4-1.9 1.5-1.5 1.3.4-.1-4.2-1-4.2-1l2.4-6.3z"/></g></g>
</svg>