<svg fill="#fff" xmlns="http://www.w3.org/2000/svg" viewBox="0 0 459.529 459.529"><path d="M17 55.231h48.733l69.417 251.033c1.983 7.367 8.783 12.467 16.433 12.467h213.35c6.8 0 12.75-3.967 15.583-10.2l77.633-178.5c2.267-5.383 1.7-11.333-1.417-16.15-3.117-4.817-8.5-7.65-14.167-7.65H206.833c-9.35 0-17 7.65-17 17s7.65 17 17 17H416.5l-62.9 144.5H164.333L94.917 33.698c-1.983-7.367-8.783-12.467-16.433-12.467H17c-9.35 0-17 7.65-17 17s7.65 17 17 17zM135.433 438.298c21.25 0 38.533-17.283 38.533-38.533s-17.283-38.533-38.533-38.533S96.9 378.514 96.9 399.764s17.283 38.534 38.533 38.534zM376.267 438.298h2.833c10.2-.85 19.55-5.383 26.35-13.317 6.8-7.65 9.917-17.567 9.35-28.05-1.417-20.967-19.833-37.117-41.083-35.7-21.25 1.417-37.117 20.117-35.7 41.083 1.416 20.117 18.133 35.984 38.25 35.984z"/></svg>