<svg xmlns="http://www.w3.org/2000/svg" width="32" height="32" enable-background="new 0 0 32 32" viewBox="0 0 32 32">
    <path d="M14.5 22c4.137 0 7.5-4.094 7.5-9.125 0-5.032-3.363-9.125-7.5-9.125-2.046 0-3.956.979-5.378 2.755C7.753 8.217 6.999 10.479 7 12.875 7 17.907 10.364 22 14.5 22zm0-16.25c3.032 0 5.5 3.196 5.5 7.125C20 16.805 17.532 20 14.5 20S9 16.805 8.998 12.875c0-3.929 2.468-7.125 5.502-7.125zM20.799 21c-.553 0-1 .447-1 1s.447 1 1 1C24.218 23 27 25.782 27 29.202c0 .439-.359.798-.801.798h-23.4c-.44 0-.799-.357-.799-.798C2 25.782 4.781 23 8.199 23c.553 0 1-.447 1-1s-.447-1-1-1C3.678 21 0 24.68 0 29.202 0 30.745 1.256 32 2.799 32h23.4C27.743 32 29 30.745 29 29.202 29 24.68 25.32 21 20.799 21zM15.231 2.639c.716-.424 1.479-.638 2.269-.638 3.032 0 5.5 3.196 5.5 7.124 0 .705-.078 1.396-.232 2.057-.127.538.207 1.076.744 1.202.077.019.153.026.229.026.454 0 .864-.311.973-.771.188-.811.286-1.656.286-2.514C25 4.094 21.637 0 17.5 0c-1.137 0-2.272.317-3.286.917-.476.281-.633.895-.352 1.37.281.475.896.633 1.369.352zM24 17c-.553 0-1 .447-1 1s.447 1 1 1c3.419 0 6 2.85 6 6.268 0 .113-.021.226-.068.326-.224.506.004 1.096.508 1.32.13.059.269.086.406.086.383 0 .748-.223.914-.594.159-.359.24-.742.24-1.141C32 20.747 28.521 17 24 17z"/>
</svg>
