<svg xmlns="http://www.w3.org/2000/svg" id="prefix__Capa_1" x="0" y="0" enable-background="new 0 0 112.2 112.2" version="1.1" viewBox="0 0 112.2 112.2" xml:space="preserve">
    <path d="M56.1 0C25.1 0 0 25.1 0 56.1s25.1 56.1 56.1 56.1 56.1-25.1 56.1-56.1S87.1 0 56.1 0zm32.1 80.7l-9.8.1s-2.1.4-4.9-1.5c-3.7-2.5-7.2-9.1-9.9-8.2-2.7.9-2.6 6.8-2.6 6.8s0 1.3-.6 1.9c-.7.7-2 .9-2 .9H54s-9.7.6-18.3-8.3c-9.3-9.7-17.6-29-17.6-29s-.5-1.3 0-1.9c.6-.7 2.2-.7 2.2-.7l10.5-.1s1 .2 1.7.7c.6.4.9 1.2.9 1.2s1.7 4.3 4 8.2c4.4 7.6 6.4 9.3 7.9 8.4 2.2-1.2 1.5-10.7 1.5-10.7s0-3.5-1.1-5c-.9-1.2-2.5-1.5-3.3-1.6-.6-.1.4-1.5 1.6-2.1 1.9-.9 5.2-1 9.2-.9 3.1 0 4 .2 5.2.5 3.6.9 2.4 4.3 2.4 12.4 0 2.6-.5 6.3 1.4 7.5.8.5 2.8.1 7.7-8.3 2.3-4 4.1-8.6 4.1-8.6s.4-.8 1-1.2c.6-.4 1.4-.3 1.4-.3l11.1-.1s3.3-.4 3.9 1.1c.6 1.6-1.2 5.3-5.8 11.3-7.4 9.9-8.3 9-2.1 14.7 5.9 5.5 7.1 8.1 7.3 8.5 2.6 4-2.6 4.3-2.6 4.3z" style="fill:#fff"/>
</svg>
