<svg style="display: none;" xmlns="http://www.w3.org/2000/svg" xmlns:xlink="http://www.w3.org/1999/xlink">
    <symbol id="email" fill="#fff" viewBox="0 0 1024 1024">
            <circle cx="512.001" cy="512" fill="#fff" r="512"/>
            <path d="M549.771 1023.837L218.018 692.085V328.944l3.683-5.549H802.3l220.786 220.684s-1.835 29.761-5.768 51.186c-3.935 21.427-3.668 22.258-7.288 36.553-3.62 14.294-8.369 31.819-12.334 43.249-3.966 11.428-6.229 18.317-10.632 28.909-4.403 10.594-8.048 19.281-12.041 27.534-3.995 8.253-5.743 12.146-10.27 20.506-4.523 8.36-17.498 30.477-23.375 39.729s-15.316 22.677-22.409 31.742c-7.091 9.063-12.491 15.938-18.313 22.607-5.822 6.67-10.248 11.812-16.37 18.188s-7.609 8.119-14.125 14.39c-6.516 6.271-10.049 9.741-15.883 14.912s-19.596 16.646-26.187 22.031c-6.591 5.384-16.071 12.396-24.739 18.277-8.668 5.883-28.68 18.808-38.68 24.348s-27.85 15.085-39.646 20.313c-11.798 5.229-25.189 11.085-37.291 15.336-12.104 4.251-18.737 6.611-31.487 10.361s-28.044 7.541-37.269 9.414c-9.227 1.873-9.206 2.377-17.981 3.837s-12.73 2.142-18.865 2.944c-6.135.802-10.747 1.428-16.751 2.014s-10.571 1.036-15.611 1.378z" fill="url(#b)"/><g fill="#000"><path d="M590.791 530.131L512 594.739l-78.791-64.608-64.188 52.634L226.04 700.01h571.92L654.979 582.765zM405.125 510.515l-93.554-90.786-93.553-90.785V692.085l93.553-90.787z"/><path d="M511.999 573.11L657.15 448.253l145.149-124.857H221.701L366.85 448.253zM712.429 419.73l-93.555 90.785 93.555 90.785 93.553 90.785V328.944z"/></g>
    </symbol>
    <symbol id="github" fill="#fff" viewBox="0 0 440 430">
        <path d="M409.132 114.573c-19.608-33.596-46.205-60.194-79.798-79.8-33.598-19.607-70.277-29.408-110.063-29.408-39.781 0-76.472 9.804-110.063 29.408-33.596 19.605-60.192 46.204-79.8 79.8C9.803 148.168 0 184.854 0 224.63c0 47.78 13.94 90.745 41.827 128.906 27.884 38.164 63.906 64.572 108.063 79.227 5.14.954 8.945.283 11.419-1.996 2.475-2.282 3.711-5.14 3.711-8.562 0-.571-.049-5.708-.144-15.417a2549.81 2549.81 0 01-.144-25.406l-6.567 1.136c-4.187.767-9.469 1.092-15.846 1-6.374-.089-12.991-.757-19.842-1.999-6.854-1.231-13.229-4.086-19.13-8.559-5.898-4.473-10.085-10.328-12.56-17.556l-2.855-6.57c-1.903-4.374-4.899-9.233-8.992-14.559-4.093-5.331-8.232-8.945-12.419-10.848l-1.999-1.431c-1.332-.951-2.568-2.098-3.711-3.429-1.142-1.331-1.997-2.663-2.568-3.997-.572-1.335-.098-2.43 1.427-3.289 1.525-.859 4.281-1.276 8.28-1.276l5.708.853c3.807.763 8.516 3.042 14.133 6.851 5.614 3.806 10.229 8.754 13.846 14.842 4.38 7.806 9.657 13.754 15.846 17.847 6.184 4.093 12.419 6.136 18.699 6.136 6.28 0 11.704-.476 16.274-1.423 4.565-.952 8.848-2.383 12.847-4.285 1.713-12.758 6.377-22.559 13.988-29.41-10.848-1.14-20.601-2.857-29.264-5.14-8.658-2.286-17.605-5.996-26.835-11.14-9.235-5.137-16.896-11.516-22.985-19.126-6.09-7.614-11.088-17.61-14.987-29.979-3.901-12.374-5.852-26.648-5.852-42.826 0-23.035 7.52-42.637 22.557-58.817-7.044-17.318-6.379-36.732 1.997-58.24 5.52-1.715 13.706-.428 24.554 3.853 10.85 4.283 18.794 7.952 23.84 10.994 5.046 3.041 9.089 5.618 12.135 7.708 17.705-4.947 35.976-7.421 54.818-7.421s37.117 2.474 54.823 7.421l10.849-6.849c7.419-4.57 16.18-8.758 26.262-12.565 10.088-3.805 17.802-4.853 23.134-3.138 8.562 21.509 9.325 40.922 2.279 58.24 15.036 16.18 22.559 35.787 22.559 58.817 0 16.178-1.958 30.497-5.853 42.966-3.9 12.471-8.941 22.457-15.125 29.979-6.191 7.521-13.901 13.85-23.131 18.986-9.232 5.14-18.182 8.85-26.84 11.136-8.662 2.286-18.415 4.004-29.263 5.146 9.894 8.562 14.842 22.077 14.842 40.539v60.237c0 3.422 1.19 6.279 3.572 8.562 2.379 2.279 6.136 2.95 11.276 1.995 44.163-14.653 80.185-41.062 108.068-79.226 27.88-38.161 41.825-81.126 41.825-128.906-.01-39.771-9.818-76.454-29.414-110.049z"></path>
    </symbol>
    <symbol id="telegram" fill="#fff" viewBox="0 0 512 512">
        <path d="M470.435 45.423L16.827 221.249c-18.254 8.188-24.428 24.585-4.412 33.484l116.37 37.173 281.368-174.79c15.363-10.973 31.091-8.047 17.557 4.024L186.053 341.075l-7.591 93.076c7.031 14.371 19.905 14.438 28.117 7.295l66.858-63.589 114.505 86.187c26.595 15.826 41.066 5.613 46.788-23.394l75.105-357.47c7.798-35.705-5.5-51.437-39.4-37.757z"></path>
    </symbol>
    <symbol id="whatsapp" fill="#fff" viewBox="0 0 90 90">
        <path d="M90 43.841c0 24.213-19.779 43.841-44.182 43.841a44.256 44.256 0 01-21.357-5.455L0 90l7.975-23.522a43.38 43.38 0 01-6.34-22.637C1.635 19.628 21.416 0 45.818 0 70.223 0 90 19.628 90 43.841zM45.818 6.982c-20.484 0-37.146 16.535-37.146 36.859 0 8.065 2.629 15.534 7.076 21.61L11.107 79.14l14.275-4.537A37.122 37.122 0 0045.819 80.7c20.481 0 37.146-16.533 37.146-36.857S66.301 6.982 45.818 6.982zm22.311 46.956c-.273-.447-.994-.717-2.076-1.254-1.084-.537-6.41-3.138-7.4-3.495-.993-.358-1.717-.538-2.438.537-.721 1.076-2.797 3.495-3.43 4.212-.632.719-1.263.809-2.347.271-1.082-.537-4.571-1.673-8.708-5.333-3.219-2.848-5.393-6.364-6.025-7.441-.631-1.075-.066-1.656.475-2.191.488-.482 1.084-1.255 1.625-1.882.543-.628.723-1.075 1.082-1.793.363-.717.182-1.344-.09-1.883-.27-.537-2.438-5.825-3.34-7.977-.902-2.15-1.803-1.792-2.436-1.792-.631 0-1.354-.09-2.076-.09s-1.896.269-2.889 1.344c-.992 1.076-3.789 3.676-3.789 8.963 0 5.288 3.879 10.397 4.422 11.113.541.716 7.49 11.92 18.5 16.223C58.2 65.771 58.2 64.336 60.186 64.156c1.984-.179 6.406-2.599 7.312-5.107.9-2.512.9-4.663.631-5.111z"></path>
    </symbol>
</svg>